<svg width="657.9px" height="121.4px" xmlns="http://www.w3.org/2000/svg" viewBox="-78.94687499999998 14.300000000000004 657.89375 121.39999999999999" style="background: rgba(0, 0, 0, 0)" preserveAspectRatio="xMidYMid"><defs><linearGradient id="editing-gradient-gradient" x1="0" x2="1" y1="0.5" y2="0.5" gradientUnits="objectBoundingBox"><stop offset="0" stop-color="#ff2a0e"></stop><stop offset="1" stop-color="#df11ea"></stop></linearGradient></defs><g><g transform="matrix(1.3,0,0,1.5,-48.7,166.1)"><path d="M 10.5 -46.4 L -3.5 -46.4 L 4.7 -88.6 L 18.7 -88.6 L 10.5 -46.4 Z M 66.2 -45.1 L 66.2 -45.1 L 66.2 -45.1 Q 58.5 -45.1 58.5 -51.1 L 58.5 -51.1 L 58.5 -51.1 Q 58.5 -53.7 59.6 -58.8 L 59.6 -58.8 L 59.6 -58.8 Q 60.7 -63.9 61.1 -65.9 L 61.1 -65.9 L 61.1 -65.9 Q 62 -70.6 62 -72.1 L 62 -72.1 L 62 -72.1 Q 62 -75.4 59.6 -75.4 L 59.6 -75.4 L 59.6 -75.4 Q 58 -75.4 56.4 -73.1 L 56.4 -73.1 L 56.4 -73.1 Q 54.9 -70.9 54.2 -66.5 L 54.2 -66.5 L 50.2 -46.4 L 37.8 -45.1 L 41.2 -62.5 L 41.2 -62.5 Q 41.8 -65.4 42.3 -68.6 L 42.3 -68.6 L 42.3 -68.6 Q 42.8 -71.9 42.8 -72.4 L 42.8 -72.4 L 42.8 -72.4 Q 42.8 -75.4 40.6 -75.4 L 40.6 -75.4 L 40.6 -75.4 Q 39.2 -75.4 37.6 -73.2 L 37.6 -73.2 L 37.6 -73.2 Q 36 -71 35.1 -66.5 L 35.1 -66.5 L 31.2 -46.4 L 18.6 -45.1 L 25.3 -79 L 35.7 -80.3 L 34.6 -73.8 L 34.6 -73.8 Q 36.3 -77.3 39.4 -78.8 L 39.4 -78.8 L 39.4 -78.8 Q 42.4 -80.3 47.2 -80.3 L 47.2 -80.3 L 47.2 -80.3 Q 50 -80.3 51.8 -78.9 L 51.8 -78.9 L 51.8 -78.9 Q 53.6 -77.6 54.1 -75.4 L 54.1 -75.4 L 54.1 -75.4 Q 55.2 -77.7 58 -79 L 58 -79 L 58 -79 Q 60.8 -80.3 64.2 -80.3 L 64.2 -80.3 L 64.2 -80.3 Q 67.6 -80.3 69.3 -79.5 L 69.3 -79.5 L 69.3 -79.5 Q 71 -78.8 72.1 -77.6 L 72.1 -77.6 L 72.1 -77.6 Q 73.8 -75.4 73.8 -71.3 L 73.8 -71.3 L 73.8 -71.3 Q 73.8 -67.2 72.1 -58.8 L 72.1 -58.8 L 72.1 -58.8 Q 71.2 -54.7 71.2 -53.2 L 71.2 -53.2 L 71.2 -53.2 Q 71.2 -51.7 72 -50.8 L 72 -50.8 L 72 -50.8 Q 72.9 -49.9 74.2 -49.8 L 74.2 -49.8 L 74.2 -49.8 Q 73.5 -47.6 71.3 -46.4 L 71.3 -46.4 L 71.3 -46.4 Q 69.1 -45.1 66.2 -45.1 Z M 81.9 -48.3 L 81.9 -48.3 L 81.9 -48.3 Q 80.4 -49.9 79.7 -52.6 L 79.7 -52.6 L 79.7 -52.6 Q 79 -55.2 79 -59.5 L 79 -59.5 L 79 -59.5 Q 79 -63.8 80.5 -67.7 L 80.5 -67.7 L 80.5 -67.7 Q 82 -71.6 84.7 -74.4 L 84.7 -74.4 L 84.7 -74.4 Q 90.2 -80.3 99.3 -80.3 L 99.3 -80.3 L 99.3 -80.3 Q 102.5 -80.3 104.9 -79.2 L 104.9 -79.2 L 115.8 -80.3 L 111.1 -55.3 L 111.1 -55.3 Q 110.9 -54.6 110.9 -53.1 L 110.9 -53.1 L 110.9 -53.1 Q 110.9 -51.7 111.8 -50.8 L 111.8 -50.8 L 111.8 -50.8 Q 112.6 -49.9 113.9 -49.8 L 113.9 -49.8 L 113.9 -49.8 Q 113.3 -47.6 110.9 -46.4 L 110.9 -46.4 L 110.9 -46.4 Q 108.6 -45.1 106 -45.1 L 106 -45.1 L 106 -45.1 Q 103.4 -45.1 101.6 -46.1 L 101.6 -46.1 L 101.6 -46.1 Q 99.8 -47.1 99.3 -48.7 L 99.3 -48.7 L 99.3 -48.7 Q 98.3 -47.1 96.1 -46.1 L 96.1 -46.1 L 96.1 -46.1 Q 93.9 -45.1 91 -45.1 L 91 -45.1 L 91 -45.1 Q 88.1 -45.1 85.8 -45.9 L 85.8 -45.9 L 85.8 -45.9 Q 83.4 -46.6 81.9 -48.3 Z M 95.4 -74.3 L 95.4 -74.3 L 95.4 -74.3 Q 94.7 -73.1 94 -71.2 L 94 -71.2 L 94 -71.2 Q 93.4 -69.2 92.3 -64 L 92.3 -64 L 92.3 -64 Q 91.3 -58.8 91.3 -55.1 L 91.3 -55.1 L 91.3 -55.1 Q 91.3 -51.4 91.8 -50.3 L 91.8 -50.3 L 91.8 -50.3 Q 92.4 -49.2 93.4 -49.2 L 93.4 -49.2 L 93.4 -49.2 Q 95.5 -49.2 97 -51.1 L 97 -51.1 L 97 -51.1 Q 98.5 -53.1 99.1 -56.5 L 99.1 -56.5 L 102.5 -75.3 L 102.5 -75.3 Q 101.1 -76.4 99.5 -76.4 L 99.5 -76.4 L 99.5 -76.4 Q 98 -76.4 97.1 -75.9 L 97.1 -75.9 L 97.1 -75.9 Q 96.1 -75.4 95.4 -74.3 Z M 123.6 -73.1 L 123.6 -73.1 L 123.6 -73.1 Q 125.8 -76.2 129.1 -78.2 L 129.1 -78.2 L 129.1 -78.2 Q 132.3 -80.3 136.4 -80.3 L 136.4 -80.3 L 136.4 -80.3 Q 140.4 -80.3 142.3 -79 L 142.3 -79 L 154.9 -80.3 L 150.5 -55.7 L 150.5 -55.7 Q 148.3 -43.2 143.5 -38.2 L 143.5 -38.2 L 143.5 -38.2 Q 139 -33.6 130.2 -33.6 L 130.2 -33.6 L 130.2 -33.6 Q 123.5 -33.6 119.6 -35.7 L 119.6 -35.7 L 119.6 -35.7 Q 115.8 -37.8 115.8 -41.3 L 115.8 -41.3 L 115.8 -41.3 Q 115.8 -43.9 117.8 -45.4 L 117.8 -45.4 L 117.8 -45.4 Q 119.7 -46.9 122.8 -46.9 L 122.8 -46.9 L 122.8 -46.9 Q 125.5 -46.9 127.5 -45.7 L 127.5 -45.7 L 127.5 -45.7 Q 128.8 -45.1 129.3 -44.2 L 129.3 -44.2 L 129.3 -44.2 Q 127.9 -42.9 127.9 -40.8 L 127.9 -40.8 L 127.9 -40.8 Q 127.9 -38 130.4 -38 L 130.4 -38 L 130.4 -38 Q 134.7 -38 137.1 -48.2 L 137.1 -48.2 L 137.1 -48.2 Q 137.9 -50.9 138.4 -53.7 L 138.4 -53.7 L 138.4 -53.7 Q 135.5 -50.1 129 -50.1 L 129 -50.1 L 129 -50.1 Q 124.5 -50.1 121.9 -52.3 L 121.9 -52.3 L 121.9 -52.3 Q 119.2 -54.5 119.2 -59.6 L 119.2 -59.6 L 119.2 -59.6 Q 119.2 -62.8 120.3 -66.4 L 120.3 -66.4 L 120.3 -66.4 Q 121.4 -70 123.6 -73.1 Z M 131.9 -59.4 L 131.9 -59.4 L 131.9 -59.4 Q 131.9 -55.1 134.1 -55.1 L 134.1 -55.1 L 134.1 -55.1 Q 135.7 -55.1 137.1 -56.7 L 137.1 -56.7 L 137.1 -56.7 Q 138.3 -58.1 138.7 -60.1 L 138.7 -60.1 L 142 -76.5 L 142 -76.5 Q 141.7 -76.6 141.4 -76.7 L 141.4 -76.7 L 141.4 -76.7 Q 140.7 -77 139.9 -77 L 139.9 -77 L 139.9 -77 Q 136 -77 133.7 -70.6 L 133.7 -70.6 L 133.7 -70.6 Q 131.9 -65.6 131.9 -59.4 Z M 183.3 -57.2 L 183.3 -57.2 L 183.3 -57.2 Q 184.9 -56.1 184.9 -53.7 L 184.9 -53.7 L 184.9 -53.7 Q 184.9 -51.3 183.7 -49.8 L 183.7 -49.8 L 183.7 -49.8 Q 182.5 -48.2 180.5 -47.2 L 180.5 -47.2 L 180.5 -47.2 Q 176.4 -45.1 172 -45.1 L 172 -45.1 L 172 -45.1 Q 167.5 -45.1 165 -46 L 165 -46 L 165 -46 Q 162.4 -47 160.6 -48.8 L 160.6 -48.8 L 160.6 -48.8 Q 157.2 -52.2 157.2 -58.4 L 157.2 -58.4 L 157.2 -58.4 Q 157.2 -68.1 162.5 -73.9 L 162.5 -73.9 L 162.5 -73.9 Q 168.1 -80.3 177.9 -80.3 L 177.9 -80.3 L 177.9 -80.3 Q 184 -80.3 187 -77.7 L 187 -77.7 L 187 -77.7 Q 189.2 -75.8 189.2 -72.7 L 189.2 -72.7 L 189.2 -72.7 Q 189.2 -61.4 169.8 -61.4 L 169.8 -61.4 L 169.8 -61.4 Q 169.5 -59.7 169.5 -58.3 L 169.5 -58.3 L 169.5 -58.3 Q 169.5 -55.4 170.8 -54.3 L 170.8 -54.3 L 170.8 -54.3 Q 172.2 -53.1 174.6 -53.1 L 174.6 -53.1 L 174.6 -53.1 Q 177 -53.1 179.6 -54.3 L 179.6 -54.3 L 179.6 -54.3 Q 182.2 -55.4 183.3 -57.2 Z M 170.2 -64.2 L 170.2 -64.2 L 170.2 -64.2 Q 174.8 -64.2 177.4 -67 L 177.4 -67 L 177.4 -67 Q 180 -69.7 180 -73.9 L 180 -73.9 L 180 -73.9 Q 180 -75.4 179.5 -76.2 L 179.5 -76.2 L 179.5 -76.2 Q 178.9 -77 177.9 -77 L 177.9 -77 L 177.9 -77 Q 176.8 -77 175.8 -76.6 L 175.8 -76.6 L 175.8 -76.6 Q 174.9 -76.2 173.9 -74.8 L 173.9 -74.8 L 173.9 -74.8 Q 171.6 -71.6 170.2 -64.2 Z M 210.6 -68.8 L 210.6 -68.8 L 210.6 -68.8 Q 211.5 -71.2 211.5 -73.2 L 211.5 -73.2 L 211.5 -73.2 Q 211.5 -77 208.4 -77 L 208.4 -77 L 208.4 -77 Q 206.8 -77 205.5 -75.6 L 205.5 -75.6 L 205.5 -75.6 Q 204.2 -74.1 204.2 -72.3 L 204.2 -72.3 L 204.2 -72.3 Q 204.2 -71.1 205.2 -70 L 205.2 -70 L 205.2 -70 Q 206.7 -68.6 210.4 -66.3 L 210.4 -66.3 L 210.4 -66.3 Q 214.2 -64 215.6 -62.1 L 215.6 -62.1 L 215.6 -62.1 Q 217.1 -60.3 217.1 -57.7 L 217.1 -57.7 L 217.1 -57.7 Q 217.1 -55.1 215.8 -52.7 L 215.8 -52.7 L 215.8 -52.7 Q 214.6 -50.3 212.3 -48.7 L 212.3 -48.7 L 212.3 -48.7 Q 207.5 -45.1 199.9 -45.1 L 199.9 -45.1 L 199.9 -45.1 Q 195.7 -45.1 192.5 -47.3 L 192.5 -47.3 L 192.5 -47.3 Q 189.3 -49.4 189.3 -51.9 L 189.3 -51.9 L 189.3 -51.9 Q 189.3 -54.4 191.1 -55.8 L 191.1 -55.8 L 191.1 -55.8 Q 193 -57.3 195.6 -57.3 L 195.6 -57.3 L 195.6 -57.3 Q 198.3 -57.3 200 -56.3 L 200 -56.3 L 200 -56.3 Q 199.2 -54.2 199.2 -52.8 L 199.2 -52.8 L 199.2 -52.8 Q 199.2 -48.5 202.7 -48.5 L 202.7 -48.5 L 202.7 -48.5 Q 204.3 -48.5 205.3 -49.5 L 205.3 -49.5 L 205.3 -49.5 Q 206.3 -50.5 206.3 -52.1 L 206.3 -52.1 L 206.3 -52.1 Q 206.3 -55.4 200.8 -58.8 L 200.8 -58.8 L 200.8 -58.8 Q 196.3 -61.8 195.3 -62.9 L 195.3 -62.9 L 195.3 -62.9 Q 193.6 -65 193.6 -67.5 L 193.6 -67.5 L 193.6 -67.5 Q 193.6 -70.1 194.8 -72.5 L 194.8 -72.5 L 194.8 -72.5 Q 196 -75 198.3 -76.7 L 198.3 -76.7 L 198.3 -76.7 Q 202.9 -80.3 211.1 -80.3 L 211.1 -80.3 L 211.1 -80.3 Q 215.2 -80.3 217.7 -78.6 L 217.7 -78.6 L 217.7 -78.6 Q 220.2 -77 220.2 -74.1 L 220.2 -74.1 L 220.2 -74.1 Q 220.2 -71.3 218.5 -69.7 L 218.5 -69.7 L 218.5 -69.7 Q 216.8 -68.1 213.7 -68.1 L 213.7 -68.1 L 213.7 -68.1 Q 211.6 -68.1 210.6 -68.8 Z M 261.6 -67 L 274.6 -68.1 L 274.6 -68.1 Q 269.9 -58 269.9 -46.3 L 269.9 -46.3 L 269.9 -46.3 Q 268.2 -45.1 265.7 -45.1 L 265.7 -45.1 L 265.7 -45.1 Q 263.2 -45.1 261.6 -46.3 L 261.6 -46.3 L 261.6 -46.3 Q 260 -47.5 259.6 -48.7 L 259.6 -48.7 L 259.6 -48.7 Q 258 -47 255.5 -46 L 255.5 -46 L 255.5 -46 Q 252.9 -45.1 250.1 -45.1 L 250.1 -45.1 L 250.1 -45.1 Q 247.4 -45.1 245 -46 L 245 -46 L 245 -46 Q 242.6 -46.9 240.7 -48.9 L 240.7 -48.9 L 240.7 -48.9 Q 236.6 -53.2 236.6 -61.5 L 236.6 -61.5 L 236.6 -61.5 Q 236.6 -74.3 243.5 -81.9 L 243.5 -81.9 L 243.5 -81.9 Q 250.5 -89.9 263 -89.9 L 263 -89.9 L 263 -89.9 Q 271.6 -89.9 274.7 -85.4 L 274.7 -85.4 L 274.7 -85.4 Q 275.6 -84 275.6 -82.3 L 275.6 -82.3 L 275.6 -82.3 Q 275.6 -80.6 274.9 -79.2 L 274.9 -79.2 L 274.9 -79.2 Q 274.2 -77.7 273 -76.6 L 273 -76.6 L 273 -76.6 Q 270.3 -74 266.9 -74 L 266.9 -74 L 266.9 -74 Q 265.5 -74 264.3 -74.5 L 264.3 -74.5 L 264.3 -74.5 Q 264.5 -76.4 264.5 -78.6 L 264.5 -78.6 L 264.5 -78.6 Q 264.5 -80.9 264.3 -81.9 L 264.3 -81.9 L 264.3 -81.9 Q 264.2 -82.9 263.8 -83.7 L 263.8 -83.7 L 263.8 -83.7 Q 263 -85.5 261.1 -85.5 L 261.1 -85.5 L 261.1 -85.5 Q 259.3 -85.5 257.3 -83.5 L 257.3 -83.5 L 257.3 -83.5 Q 255.3 -81.6 253.7 -78.4 L 253.7 -78.4 L 253.7 -78.4 Q 250.2 -71.2 250.2 -62.6 L 250.2 -62.6 L 250.2 -62.6 Q 250.2 -58.6 251.7 -55.8 L 251.7 -55.8 L 251.7 -55.8 Q 253.4 -52.7 256.3 -52.7 L 256.3 -52.7 L 256.3 -52.7 Q 257.3 -52.7 258.3 -53.2 L 258.3 -53.2 L 258.3 -53.2 Q 259.2 -53.7 259.6 -54.1 L 259.6 -54.1 L 261.6 -67 Z M 280.5 -48.3 L 280.5 -48.3 L 280.5 -48.3 Q 279 -49.9 278.3 -52.6 L 278.3 -52.6 L 278.3 -52.6 Q 277.6 -55.2 277.6 -59.5 L 277.6 -59.5 L 277.6 -59.5 Q 277.6 -63.8 279.1 -67.7 L 279.1 -67.7 L 279.1 -67.7 Q 280.6 -71.6 283.3 -74.4 L 283.3 -74.4 L 283.3 -74.4 Q 288.8 -80.3 297.9 -80.3 L 297.9 -80.3 L 297.9 -80.3 Q 301.1 -80.3 303.5 -79.2 L 303.5 -79.2 L 314.4 -80.3 L 309.7 -55.3 L 309.7 -55.3 Q 309.5 -54.6 309.5 -53.1 L 309.5 -53.1 L 309.5 -53.1 Q 309.5 -51.7 310.4 -50.8 L 310.4 -50.8 L 310.4 -50.8 Q 311.2 -49.9 312.5 -49.8 L 312.5 -49.8 L 312.5 -49.8 Q 311.9 -47.6 309.5 -46.4 L 309.5 -46.4 L 309.5 -46.4 Q 307.2 -45.1 304.6 -45.1 L 304.6 -45.1 L 304.6 -45.1 Q 301.9 -45.1 300.2 -46.1 L 300.2 -46.1 L 300.2 -46.1 Q 298.4 -47.1 297.9 -48.7 L 297.9 -48.7 L 297.9 -48.7 Q 296.9 -47.1 294.7 -46.1 L 294.7 -46.1 L 294.7 -46.1 Q 292.5 -45.1 289.6 -45.1 L 289.6 -45.1 L 289.6 -45.1 Q 286.7 -45.1 284.3 -45.9 L 284.3 -45.9 L 284.3 -45.9 Q 282 -46.6 280.5 -48.3 Z M 294 -74.3 L 294 -74.3 L 294 -74.3 Q 293.2 -73.1 292.6 -71.2 L 292.6 -71.2 L 292.6 -71.2 Q 292 -69.2 290.9 -64 L 290.9 -64 L 290.9 -64 Q 289.9 -58.8 289.9 -55.1 L 289.9 -55.1 L 289.9 -55.1 Q 289.9 -51.4 290.4 -50.3 L 290.4 -50.3 L 290.4 -50.3 Q 291 -49.2 292 -49.2 L 292 -49.2 L 292 -49.2 Q 294.1 -49.2 295.6 -51.1 L 295.6 -51.1 L 295.6 -51.1 Q 297.1 -53.1 297.7 -56.5 L 297.7 -56.5 L 301.1 -75.3 L 301.1 -75.3 Q 299.7 -76.4 298.1 -76.4 L 298.1 -76.4 L 298.1 -76.4 Q 296.6 -76.4 295.6 -75.9 L 295.6 -75.9 L 295.6 -75.9 Q 294.7 -75.4 294 -74.3 Z M 333.2 -49.9 L 333.2 -49.9 L 333.2 -49.9 Q 331.2 -45.1 324.9 -45.1 L 324.9 -45.1 L 324.9 -45.1 Q 321.7 -45.1 319.6 -47.3 L 319.6 -47.3 L 319.6 -47.3 Q 317.9 -49.2 317.9 -51.3 L 317.9 -51.3 L 317.9 -51.3 Q 317.9 -56.1 320.2 -66.6 L 320.2 -66.6 L 324.9 -91.2 L 337.9 -92.4 L 331.6 -60.1 L 331.6 -60.1 Q 330.6 -55.3 330.6 -53.7 L 330.6 -53.7 L 330.6 -53.7 Q 330.6 -50 333.2 -49.9 Z M 353.9 -49.9 L 353.9 -49.9 L 353.9 -49.9 Q 351.9 -45.1 345.6 -45.1 L 345.6 -45.1 L 345.6 -45.1 Q 342.4 -45.1 340.3 -47.3 L 340.3 -47.3 L 340.3 -47.3 Q 338.7 -49.2 338.7 -51.3 L 338.7 -51.3 L 338.7 -51.3 Q 338.7 -56.1 340.9 -66.6 L 340.9 -66.6 L 345.6 -91.2 L 358.6 -92.4 L 352.4 -60.1 L 352.4 -60.1 Q 351.3 -55.3 351.3 -53.7 L 351.3 -53.7 L 351.3 -53.7 Q 351.3 -50 353.9 -49.9 Z M 385.3 -57.2 L 385.3 -57.2 L 385.3 -57.2 Q 386.9 -56.1 386.9 -53.7 L 386.9 -53.7 L 386.9 -53.7 Q 386.9 -51.3 385.7 -49.8 L 385.7 -49.8 L 385.7 -49.8 Q 384.4 -48.2 382.5 -47.2 L 382.5 -47.2 L 382.5 -47.2 Q 378.4 -45.1 373.9 -45.1 L 373.9 -45.1 L 373.9 -45.1 Q 369.5 -45.1 366.9 -46 L 366.9 -46 L 366.9 -46 Q 364.3 -47 362.6 -48.8 L 362.6 -48.8 L 362.6 -48.8 Q 359.2 -52.2 359.2 -58.4 L 359.2 -58.4 L 359.2 -58.4 Q 359.2 -68.1 364.5 -73.9 L 364.5 -73.9 L 364.5 -73.9 Q 370.1 -80.3 379.9 -80.3 L 379.9 -80.3 L 379.9 -80.3 Q 386 -80.3 389 -77.7 L 389 -77.7 L 389 -77.7 Q 391.2 -75.8 391.2 -72.7 L 391.2 -72.7 L 391.2 -72.7 Q 391.2 -61.4 371.8 -61.4 L 371.8 -61.4 L 371.8 -61.4 Q 371.5 -59.7 371.5 -58.3 L 371.5 -58.3 L 371.5 -58.3 Q 371.5 -55.4 372.8 -54.3 L 372.8 -54.3 L 372.8 -54.3 Q 374.1 -53.1 376.6 -53.1 L 376.6 -53.1 L 376.6 -53.1 Q 379 -53.1 381.6 -54.3 L 381.6 -54.3 L 381.6 -54.3 Q 384.2 -55.4 385.3 -57.2 Z M 372.2 -64.2 L 372.2 -64.2 L 372.2 -64.2 Q 376.8 -64.2 379.4 -67 L 379.4 -67 L 379.4 -67 Q 382 -69.7 382 -73.9 L 382 -73.9 L 382 -73.9 Q 382 -75.4 381.5 -76.2 L 381.5 -76.2 L 381.5 -76.2 Q 380.9 -77 379.8 -77 L 379.8 -77 L 379.8 -77 Q 378.7 -77 377.8 -76.6 L 377.8 -76.6 L 377.8 -76.6 Q 376.9 -76.2 375.9 -74.8 L 375.9 -74.8 L 375.9 -74.8 Q 373.6 -71.6 372.2 -64.2 Z M 413.4 -64.3 L 413.4 -64.3 L 413.4 -64.3 Q 415.7 -68.4 415.7 -72.6 L 415.7 -72.6 L 415.7 -72.6 Q 415.7 -75.4 413.8 -75.4 L 413.8 -75.4 L 413.8 -75.4 Q 412.2 -75.4 410.6 -72.7 L 410.6 -72.7 L 410.6 -72.7 Q 409 -70.1 408.4 -66.7 L 408.4 -66.7 L 405.1 -46.4 L 391.9 -45.1 L 398.4 -79 L 409 -80.3 L 407.8 -73.8 L 407.8 -73.8 Q 410.9 -80.3 418 -80.3 L 418 -80.3 L 418 -80.3 Q 421.7 -80.3 423.7 -78.4 L 423.7 -78.4 L 423.7 -78.4 Q 425.7 -76.4 425.7 -72.5 L 425.7 -72.5 L 425.7 -72.5 Q 425.7 -68.6 423.1 -66.1 L 423.1 -66.1 L 423.1 -66.1 Q 420.5 -63.6 416.1 -63.6 L 416.1 -63.6 L 416.1 -63.6 Q 414.2 -63.6 413.4 -64.3 Z M 447.1 -53.6 L 447.1 -53.6 L 447.1 -53.6 Q 443.8 -50.1 437.7 -50.1 L 437.7 -50.1 L 437.7 -50.1 Q 430.1 -50.1 428.5 -55.7 L 428.5 -55.7 L 428.5 -55.7 Q 428 -57.4 428 -59.2 L 428 -59.2 L 428 -59.2 Q 428 -61.1 428.3 -63 L 428.3 -63 L 431.4 -79 L 444.3 -80.3 L 440.8 -61.7 L 440.8 -61.7 Q 440.7 -60.8 440.5 -59.9 L 440.5 -59.9 L 440.5 -59.9 Q 440.3 -59 440.3 -58.1 L 440.3 -58.1 L 440.3 -58.1 Q 440.3 -57.2 440.6 -56.6 L 440.6 -56.6 L 440.6 -56.6 Q 441 -56 441.4 -55.6 L 441.4 -55.6 L 441.4 -55.6 Q 442.2 -55.1 443.5 -55.1 L 443.5 -55.1 L 443.5 -55.1 Q 444.9 -55.1 446.1 -56.7 L 446.1 -56.7 L 446.1 -56.7 Q 447.3 -58.4 447.9 -61.3 L 447.9 -61.3 L 451.4 -79 L 464 -80.3 L 459.2 -55.1 L 459.2 -55.1 Q 456.8 -42.8 452 -38 L 452 -38 L 452 -38 Q 449.5 -35.5 446.2 -34.5 L 446.2 -34.5 L 446.2 -34.5 Q 443 -33.5 438.8 -33.5 L 438.8 -33.5 L 438.8 -33.5 Q 432.1 -33.5 428.3 -35.6 L 428.3 -35.6 L 428.3 -35.6 Q 424.4 -37.7 424.4 -41.2 L 424.4 -41.2 L 424.4 -41.2 Q 424.4 -43.9 426.4 -45.4 L 426.4 -45.4 L 426.4 -45.4 Q 428.4 -46.9 431.5 -46.9 L 431.5 -46.9 L 431.5 -46.9 Q 434.2 -46.9 436.2 -45.7 L 436.2 -45.7 L 436.2 -45.7 Q 437.4 -45 438 -44.1 L 438 -44.1 L 438 -44.1 Q 436.5 -42.8 436.5 -40.7 L 436.5 -40.7 L 436.5 -40.7 Q 436.5 -37.9 439.1 -37.9 L 439.1 -37.9 L 439.1 -37.9 Q 443.3 -37.9 445.8 -47.6 L 445.8 -47.6 L 445.8 -47.6 Q 446.5 -50.5 447.1 -53.6 Z" fill="url(#editing-gradient-gradient)"></path></g></g><style>text {
  font-size: 64px;
  font-family: Arial Black;
  dominant-baseline: central;
  text-anchor: middle;
}</style></svg>